<svg xmlns="http://www.w3.org/2000/svg" viewBox="0 0 330.03 195.95"  xmlns:v="https://vecta.io/nano"><path d="M312.47 171.27A60 60 0 0 1 211.8 114.8l5.66 1.82a54 54 0 1 0 39.91-40.15l-1.69-5.67a59.89 59.89 0 0 1 56.79 100.47zM17.56 17.54A60 60 0 0 1 118.23 74l-5.66-1.81a54.05 54.05 0 1 0-39.92 40.14l1.7 5.67A59.89 59.89 0 0 1 17.56 17.54z" fill="#e19826"/><g fill="#87cdea"><path d="M176.4 69.05h17.95v126.9H176.4z"/><path d="M240.75 69.06v18.33h-77.81V69.06zm-155.04.6q4.5 5.24 11.07 12.15 6.57 6.91 14 14.49 7.38 7.56 14.94 15 7.56 7.44 13.86 13.41V69.66H157V194.4h-17.47v-59.22A141.41 141.41 0 0 0 124 146.52q-8 6.67-15.84 14.49-7.84 7.82-14.89 16.38a179.26 179.26 0 0 0-12.42 17H60.33a156.55 156.55 0 0 1 12.15-17.82q7.29-9.35 15.57-18.36 8.28-9.01 16.95-16.91a161.7 161.7 0 0 1 16.35-13.3q-6.66-6.48-14.22-14-7.56-7.52-15.21-15.45-7.65-7.83-14.67-15.3-7.02-7.47-12.6-13.59z"/></g></svg>